<mxfile host="app.diagrams.net" modified="2024-04-29T13:30:45.747Z" agent="Mozilla/5.0 (Windows NT 10.0; Win64; x64) AppleWebKit/537.36 (KHTML, like Gecko) Chrome/124.0.0.0 Safari/537.36" etag="wm4XzldJAy5m9LWvgwpW" version="24.3.1" type="github">
  <diagram name="Page-1" id="qPZybV3zCfEUb5zGRMGi">
    <mxGraphModel dx="2064" dy="1060" grid="1" gridSize="10" guides="1" tooltips="1" connect="1" arrows="1" fold="1" page="1" pageScale="1" pageWidth="2500" pageHeight="1100" math="0" shadow="0">
      <root>
        <mxCell id="0" />
        <mxCell id="1" parent="0" />
        <mxCell id="dh77e4ApneEu6l16O4cU-1" value="" style="shape=image;verticalLabelPosition=bottom;labelBackgroundColor=default;verticalAlign=top;aspect=fixed;imageAspect=0;image=data:image/png,iVBORw0KGgoAAAANSUhEUgAABCoAAAESCAYAAAA7RDStAAAAAXNSR0IArs4c6QAAAARnQU1BAACxjwv8YQUAAAAJcEhZcwAADsMAAA7DAcdvqGQAAEUESURBVHhe7d29buo+H8Dx3/9ZeiNIFUJiYesVIHVIN7ZKbGxdKsYOHVGXbt0idWMrQyWuoFsWJIQqcSNM57EdBwJN4kASCPD9SNE5JZD4LS92bOe/1Wr1TwAAAAAAAGrgf/ZfAAAAAACAk6OhAgAAAAAA1AYNFQAAAAAAoDZoqAAAAAAAALVBQwUAAAAAAKgNGioAAAAAAEBt0FABAAAAAABqg4YKAAAAAABQGzRUAAAAAACA2qChAgAAAAAA1AYNFQAAAAAAoDZoqABKMZXBzZ28L+2fAHDhlu93cnNzY5eBOgvG6XNitE4tg+21gAvlC+l0/u+WiUNsytEdN3BA7ZTQULGU97uki0jVwv1e7omlaPzC31/EtXv5LnexG5L65blOa09mo095atiP1jg+qnHp8Yucqvzkderw1T19ijo0fuHvjnL+709ktVqp5UO69qNQVz7M5yuZ9O1HpaP8VSW7keCIrrp8nVqd49+V59FMvIJhmw488W0Z+/l7AwfgxE7eo8JcDO/e1ekQ56j6/FMXysehyGhub1bqdzFZvj/KUEbyWUG4OD6Q5dzLR9Xh5/jJdu3pQ/lL13j6Ca+51bUCXLxLP75OHb/G06eMOr54B7fILuV3JtJ/2G4CA1AfJTRUNOTpJ6m1GyjDUhZBR3r3NW3pXr6LaUf5fFJHQhKODxRR9/Jz6vBd+vHF+SMb5Q9Vuvb8rXv8Vfg+R9LxXxl2C1yoQg0VpjU1tWtg2GVsMI2PI9yM4Y9+2xoGIsFQWgnf2U/URS36ffb+I9NBtE4v8Tgk/f5vV9rt37vWJ3RR2xnWkN46vRu/vKLfhUs8fCYP9AfTwXr9pit9FH/7p6a/Z8OXN/+24l96y/t23HbTNzt+liP9XeFffo8l6PQkqR2F42P39671Jzg+9sn/wvHfL35Z5cdVPsL1u/sLw1rWcJlTl+8i6RPZyp943utzhsrMaP1guk/5Cr+blM4mXLH9pO5fyU5fLQrT9rK93/h39k//7fL7t3yfUnb6XHP5i/a/myZ/j//t/E0qY2mi9LV/arH7g0hW+dYoX2myt+9M/4LlR6tD+c5VPhr30usEMv7OGTEAZ6VQQ0WeroG+9yrNuW6R1eMIAxk+hier6LfzUUekM5K53o5ZfhLG+bvok1zLdL+f7/w+bf+aPtl+PUT71et98XYupr7niUzC9Tqsvrc5Yevfe7N42FfyEWt2dm5fn6xbQ2nb7ZvlJ+nJfHr8XHyvJYuXcNu74Td8T25em2Ec5iNRCZTrQpYn//RFxpNofKmKf1td0BJuVhLptDEXJ098UfnWii5WUfhtmrQ3258njVfMip8j/fOEf7kIpNO7T8gzjo/aHx+O7ZcR/yLxyyo/rvLReHqRvjpyvuIHw/RLfPXdsoYonbp8F0kfzXl8q3PHa3Nu81WfR+cyynVD3JDbtrp/X6R8r31r8ti1f1f6Tgfx858Om47qfGtoXPz8v2/6u47fU3Olj3ad5U/vP+X4V5++2ADkOb8V4Yof5cst6/rsVKD8aKcu3/nLR0Pue530822msMduc488AXBclc9R0Z9sTlzdh/QT/uFiFdaESkzW/vXJNn7iSwpfX1Uiou+EF/+Z/MbPh8FY0s77ru1Pv3wzUVT2xTk7fi7O8KtPJtF2G7fSlkAOOt//MZUvvyOj503kus8j6WSk15buh704TVQI1XbsxXrdBXH5LeNAhT2WeIk3Zxnxy07/POEPxzcWwfFh/1COfXy4tl80/uXE71Bd0bvz1weDSqdXP7VRrSrVl+9D5Tm+N5U6fTMe+6pTo6lu4C19w256dimmYdPcFRc8P5rfqxCux1Yn36zHy+dB6Z87PPV0reVPbU2edQUwdjEMzzcP6y78ec5vh8tZvilfmYptv0j5Kaqk8r1P+Zj9qqtcXlFPlS952LPxCMBxnXwyzaKCoSe699lBk+Hsdrv21IXcaVPR1Rd685A+etq/+zQic/v5JvEpFL9EOw0RsRsXdSkxs2iXUnFa/qoqWxDrCaGW1lB9UpLlImFbDYnVD0Kp8XOkf9XhPxKOjzQ5tl8w/mXErwhzY+h/qVsyxTbsrW8Mr13Fx3dDd6kwN87qhn3Wl/5M50OY5+1blQeF9/+3Iep7HDWClMN5/OJwR7i+NO57m+Nfl8OdiuNh57eccsSP8nXBSijf1ZYP+8aYeVNe9xgOA+D4zr6hQnd11V3TfG/fk81UBurEGX+bRFYXP8OcfLe7iemTafj7uYxkKK31ILp8259td2/44/D4JUgIf7XUjdG6J0S0VNl6rbvx2f/mlJ3+xw5/+Tg+sqVvv2j8y4lfIWbsri+vKmH0XCqqlhJrtEOlx3ejKZ1gIUtVJqT3LA/tqKdX/PgoYf++ZysCYa+ist+IlH78oriKry/2+Dflzgz7is+ldMD5bW/u+FG+Llnx8r1X+bBD6vZi57fY6YgGoEZO3lBhnjwV7f7X/bAtr0Uq8+rC7XiiMH0bStB/STnRhuOS0+1u33bVzTMnRCnxc4U/2fqJnX76kpA+qflnLwDDt4puPLoPood5xF9LZd6HnbuLoyP9c4XfbmP8XdmTII6Pqo6PPbZvFI1/gfhlyC4fDXl66avVb/I2VvXlxDfnqHCZiu7O3C5HUkr5znCy85MZZiby+72Qpkp33W3b/3qTRdAW3aGi+P7tE/J4ReCArnD50991/B6K8led8PjX13A97KP/kjU0zn1+S5J6f7B3/Chfh3Ddn1XteOU7q3yU35sMQH0UaKjQY8P1BUAt5gSpKo3mgrBnZUhVMswkQesuYodVpnTLa7SdfI3y4RjOYNiy+32V5ujvEwXfi8JlJwaK3Qyascd2nVmvJ/5Zr3dvX4d5q2ubXlK6t+0fv1BW+LNFr32yT+xaC3lJeuKSmn/6tVZzGc2iJ352Ka37nu66N5H++omiTf895inITv984Tfda4Oh/L0ec3zU/fjI3n7R+BeNX87y4yofukEv8MVvpzcghcOldud2cTl1+S6aPlWfn3S6+jIcN8On2DoffJUPnaY9P7n274qfLl87ZWfr9zllpH/28VsWyl/4uV1KK3+WKXeeeH5ftkeZuc5Prvip8GfeH7jjR/kqwpX+RZ2+fOcuH2ZYY41fYQ+gkP9Wq9U/+39s0SfqcMb00q+duCj6grpvI8n5u/bj41zir58ohm8mSQunnl097AVeYrdzVEs/QW2NpbeVZ2Fez0bbb/6okik7ixdnA7g5R6Y0lFP+kIbyhWzhdXjcO/Scx30+UHdnP0cFcGrdjznja1FL7uFQYbdZ2Rq/jtpLmkzYzJFiJ+s8G5Q/VInydcmW74/qzqvIK7fDISWbSYkB1A0NFWcpGneZvtS7znzu4d+luznqYSivJXXrRDGXVr72F3WbzezpMx2o7xz+6uPrVYPy9afLtVpaQ2ln9JypzHr43e48AJt0Mr3Hd1H+DnRl5zfKV8kupfxM5W3Y3rx+/kDdj80Q4jtu4IDaYegHAAAAAACoDXpUAAAAAACA2qChAgAAAAAA1AYNFYCDHu+fNXbRtR4AAAAAkB8NFbnpCYjKegc2AJw7fU7cneDuEJvJ3WjwAwAAgHYBDRX6Pcj6Jjfjhlm/c97eCB92M6z3od9P/1nD93DniP8Vi95+YJa7d5VadRHm2+VWzC49fpHLPv6yj5+uPI9m4hWMu3mFan8iq9XqwHfhAwAA4NJcQY8KVZF4HIqM5uZG+JCb4eLvaj6d5ftdzSrox6MrWeb1jCbf5yoHh9K69PdSolbO+fjLc/w0nj5l1PHFO/i4WsrvTKT/cOx3agIAAKDOLqChoiFPP/pG+kOSb3WXsgg60rs/sJFh+S6mneOzru/hdsX/Wk3ly+/E8k2l00tfxH9l+A5KdKnHX97jR33+OZIOxxUAAABKdNYNFeZpZdQtuaKu18vvsQSdnvxt5wi7fA+mm/HVN1tzWETr7Z/adLB5uqr/r1ZGXasH06gLef55MLLiH61rDQORYCit9fe2t5/atTtn+LZ+b75nV5za9Et8acvtOt9U+F999W8gi5zpe1y76RuVn7TyFdpO/3gZSPr93/xx5V/69q2dYVXpvQeSy4+TY/vlxn+/+BU5/sL1u/sLw1qL4TL7HD+Ne+l1Ahl/1yDcAAAAuAhn3VDRePoRM5xj0refxOiKtqkYeOqGO5BhK7lC4bJcBNLp3dunin/53qs05/qJ6komfbWfx7SKWgLfk9fmXOajjvpvSxYvcxntccOfFf9ond62dKLu23r5Wc+zoStpnoRjw03426pCFa8IOsKnK1ubruHh8pH7sfJ2BTK+hJVJ1/ocOs0w30xlMwq/WVMzulLdMsOL5rH80bLKl07/r4dN2k/6vng7FXnf80Qm4fowHzfl35V/zu3rY6w1lLbdvll+knoepccvk2P7ZcS/SPyKHH+NpxfpqzPTV7ws68YB9d18Q8zqdPw05L7XkeCgFsCwx1szT5QBAABwNS53joruh60YTFSFoCMjW9nbr4t2OH46S3+yqXh1HxIaTDL15SX6saqgPB+177jt2h3bafd5JJ1gLJt2khzh2/r+Prrysa68bS9hZdm1Ph9dGb1pjaWn8n+f3x2PrcS3J4mV/KzypSvD8Tgllb++qmRH3wkrxzP5jedXRv65tj/98vUOHOmaHb8sru0XjX858TtUV/Tu/HVLRdhjIatRdFsNj5/Zr4pFXlFDypc87NN4BQAAgKtwBZNpItHyV1XZ4j1N1NIaqk/y0xW9+Ug229h5mp3tCE+Eg6F4417sKb5+emvW1EYw9ESPDjhoMsHdYQme7prvsum678y/zO3nmwTx8Pjl2H7B+JcRvyJMw6D/pUq6svyWcRBrGHQ69+PHNqTMm/K673AgAAAAXDwaKq5avKdJtOz3dFNXdsPfJb8VIF3FT4QbTRU7VdF8iT3FN40zfamw7rm3jn4bzaQvvrdvZU1VRFvbb7NJHAIVZ+K/3c0+Pf/ybX+21T3jr8PjF0rfftH4lxO/QszcDr68qoTRc+HI6FmV+rxqePy0b/fqMWPY+S3qOW8MAAAAToWGikx27PX4e/tJ8x7WXbv109tcT3zL1bhtS2L3fltBGL7lbVhwaYjeVW00niR8SUHUS2BpXlMb9B/2qAweSffD9mwo8mRZVbwd5Wv6puP/ktIQ5cq/3e3bY2P46A7zQfHbY/tG0fgXiF+G1OPPCN+kEYzf5G0sh7+ZqAp7HT9L+R4H0mGiCQAAAJTkjBsq9Nh3253ZVDB88UzX5nK7ETfue9IJhrJ/fT56bZ8XhrG1kBfXE9+95Iy/qiSaSRjXQzyi9fq1inMZzWz4omWP4Ru7b4wwEzPmelx7HN0P20vAhM/Ok1Cj8MXpng1RPuXrlNKV55GuSLds+r9Kc/S3fPleLH/0xKmx+Gfnn3v7f4aO6CWl/OwfP9f2i8a/aPyKHn9W90H6gS9+O60B5XRyHz9m2EqBV0ADAAAAO/5brVb/7P+RwrwdQ1fi9pwMEJdB579++8lPSk3Stf40dEVav6khZ1f/i3Mu8Z/K4CZ8M8l55lOYzuPeoeX/2sspAAAAkjD0I4f1k8Xc8y8AgNt04JlXkh73jT/lWb4/qjNj3leqJgmHHG3efgIAAADQUJGTHiYxkb7/WuqwknT6KWvUVTx5oc0E54vyHQ27Oe+eWlN5G7ZlUjD83Q99bg2HoN0d5wQLAACAmmPoBwAAAAAAqA16VAAAAAAAgNqgoQIAAAAAANQGDRUAAAAAAKA2aKgAAAAAAAC1QUMFMkVvJzDL3bswJz8AAAAAoEo0VJzY8v2utg0AupHCvD5xtZLVai4jGUqL96ICAAAAACpEQwVSTOXL78jo80ka5u+GPL30RfxXeadbBQAAAACgIjRUFGB6Q+geBtPBenjE3U4tPm3ohPmt+qw1DESCobSi79zc2YaApbzf3chWBwa9n91tpO4/+v1UBn+2ncP0S3xpy23YSqGo7b366t9AFlvbsNtnWAgAAAAAoAQ0VBTle3Lz2gyHR8xHIsPHdWOAGTohE1mZoRMrmbSH0rIV+sbTj/lsPuqIdKLhFXr5kad140AOGfvXfO9VmnO7/36gVu/RoNBphr0plu9yd9OSxctcdHABAAAAAKgKDRWF9WXyY4dHNG6lve5xYIdOPHf1H0b3eSSdYCzfuVsK8kjbf6g/2TR8dB/64X/2YHpttMbSm6/kYxOVmK586EaSKAwAAAAAABRAQ0VR/QdVVY+ElXZToV/+ykwCGbaiYRdqaQ3VJyVL238ZgqF4457M1708lrIoPQIAAAAAAGzQUFGpjozssIvNsufQjlNpNFXoRfovsZ4SpvGlLw9lNYQAAAAAALCDhoqqNO6l1wlk+Jb9Os/GbVskYziI/2V/r+eJ8PRklkfSeJLwJR/RnBZLeX8cSrDVg0OLJuscqP8BAAAAAFAMDRWVacjTz1xGM28z9EMvu2/H6H6Ek1yuh4hEb+ZQv/8cSUdPlqk/by3kZbL/HBNFdD9U+CV6I0lLhu2JrP6MK2lI00yw6UvUpgIAAAAAwKH+W61W/+z/gcPo16N6vvQnJc6PAQAAAAC4SvSoQEFLeX/1zStWYy84AQAAAADgIDRU4HC6J4UeEiIjmfN6UgAAAABACRj6AQAAAAAAaoMeFQAAAAAAoDZoqAAAAAAAALVBQwUAAAAAAKiNs26oWL7fyc3NjVoGMrWfAQAAAACA83URk2lOBzfiyURWH7wfEwAAAACAc3YRQz+6D32R2a8s7d8AAAAAAOA8MUcFAAAAAACoDRoqAAAAAABAbVxGQ0WjKZ1gLN+M/QAAAAAA4KxdSEPFk/ysPkUeeQMIAAAAAADn7DIaKpbvcnfzKPK5ktXqQ3j3BwAAAAAA5+lCGioWEnR6ct+wfwMAAAAAgLPEZJoAAAAAAKA2aKgAAAAAAAC1QUMFAAAAAACojYtoqJh++SLtW2GKCgAAAAAAzttZN1Qs3+/k5uZGPL8vkw/e9QEAAAAAwLn7b7Va/bP/BwAAAAAAOCnmqAAAAAAAALVBQwUAAAAAAKgNGioAAAAAAEBt0FABAAAAAABqg4YKAAAAAABQGzRUAAAAAACA2qChAgAAAAAA1AYNFQAAAAAAoDZoqAAAAAAAALVBQwUAAAAAAKgNGioAAAAAAEBt0FABAAAAAABqg4YKAAAAAABQGzRUAAAAAACA2qChAgAAAAAA1AYNFQAAAAAAoDZoqAAAAAAAALVBQwUAAAAAAKgNGioAAAAAAEBt0FABAAAAAABqg4YKAAAAAABQGzRU5DaVwc2dvC/tn6iF5fud3Nzc2GWgcgnnQx9TUd6pZUDuoU50+SzjnLIp53dcQAAAAHK5gIaKpbzfOSqpy3e5i1WI9r9Z1PvwZDb6lKeG/Wgtx/7P2qHxC393lLpnfyKr1UotH9K1H9XHpZcPl6z4d+XD5NtKJn370dGE4brciuOlxy9S5fHVlefRTLyC254OPPHtOern7wUEAAAACa6gR4W6kX0ciozmtjK7/83i8v1RhjKSzwNuMs0T/7t3FQokufb0uej4TweqAvko0jt6KwRgFD2+Gk+fMur44h3c4rqU35lI/6F+TagAAAB1dgENFQ15+sl6mr6URdCR3v2BT7KW72LaOT6f1J6SuPZ/7i49flW71vSbysATmax+5OnWflQ20xByrT1VEKr6+FLb/xxJx39l2B8AAMARnXVDxTHmJ1h+jyXo9CSpnSNr/9G61jAQCYbSWn9ve56L6SD6XC3xJ3+6EjaYrtcPplEX5zzzZKR3+959wpi6f8WdvlGYtpft/ca/swn7QemjlvwPNsP9DqbxeRDi247W2z81neZRGhRK/1Adysfh6VeUHtZRceNM90MmfV+8PfIk3W76ucpPaDt943mc9Pu/6e/Kn/TtWzvD2naP4Y39y6/h2H658d8vfkWOr3D97v7CsP45bzbupdcJZPy9T8IBAACgiLNuqGg8/YgZzpE0wN08bdU3pp74EsiwlXxD67JcBNLp3UtSb4qs/Ufr5qOOSGckczvsZKWfMNuN6Zt0T6L5FVYyaasb6nhFwPfktTk32/C9lixe5jLKdcPckNu2uj9fpHyvfWvi49p/Zvoq00FLhu3o9zpsOqrzraE1Ybjt9vsqHx7D7edJH12Z8GbxdSv52LPm63uv0pz/3X8uB6d/6NTlo4z0q7vuh05DMcf34Y0wulKtyrLotNqkv5ZVfnT6fj1s0tY0muxU5H3PdCsx68N82px/XPnj3L4+x7WG0rbbN8tPUs+v9Phlcmy/jPgXiV+R46vx9CJ9dWX4ipeZ6Zf46rt/h/g15L7XST+fZgp79DXzpjkAAACMy52jovthb0wn6oa0IyNb2divi3A4vrgaU/nyVbieN6HpPo+kE4xlUw/uy0t006xuoGNfdWo01Q26ZZ5a2lqcaXgxd8159p9F/z4+9jr5Zr6vKhlR5av7kNzgkSl3eJL1J5uK2f77Pzz9iyupfBRMv3NgKqXzkcy8QyaPtJV43eCWUMnPKj96v/GGhaTyFS//YeV4Jr/xIGbkj2v7U3MATra+81d2/LK4tl80/uXE71Bd0bvz1y0VKp1e/dRGaWP2q76VV9ST5Ese9mkcAgAAgHEFk2nW1PJX3bLHe3qopTVUn5SjobtUmBtrVeGd9aU/+1L/Cxte2rfqrrnw/v/e6H+Po0aQcuiKTPS03IRv52ntRSuhfBRPv+1u+3o5vNfCcQTDNxXq/IKhJ3p0wEGTHe4OS/BUxdopkKgtz5k/mdvPN0nj4fHLsf2C8S8jfkWYhj9fnxeV5beMg1jDX2H2jTbzpryWMjQJAADgutBQcVLxnh7RUtLTt0ZTOsFClqrCK71neWhH3Zzj3ZBL2L/v2YpG+NS27Nfv6cpcGK65jGQorbrXlEtVPH+Kpd/m9aHRUs3T7YK2hgjsNy+GHqqkhw743r6VyakM1D7jbxNKGyK1ZhqftocBpOdPvu3Ptrpn/HV4/ELp2y8a/3LiV4iZe8KXV5Uwei4iGT1nlx07ZG4vdn6Lg0aNAAAAXDEaKjLZ4Qzj7z2fRG+Yng1J3bvtDezwraKKd+NW1J7l93shzfuG6Vbtf73JImiL7lBRfP92aEK8In1ALTY1ff4I590o27pHiH66m+uJcLmOVz6qSb9TM8OavJkphwc3onQ/bM+GIk++VcXbUX6mb0MJ+i8pDU2u/Nndvj03DR/dYT4ofnts3yga/wLxy5B9fmnI00tfrX6Tt7FkvBmq/N5iAAAAyHbGDRV67HW8y7Ce/V//XW4328Z9TzrBUP7WF3Pu37yZIN6FP1qvX6s3l9Es6pFgl9KGNzSk2fFlOG6GbyzpPkjf98XvNNWacH32/l3x68pzvNv6n9/nlJo+quqiK6GxbZuJB0t7pB+9dtDGv7WQF9cT4b2cvnxUm34uRzg+pwPx/H74CtSCdUjdsyHKh3ydTnT51xXplk3fV2mO/pYf37NpoNNfT4waS//s/HFv/8/QEb2klI/94+faftH4F41f0ePL0ufFQJ0X22kNKIoZFlLgFdcAAADY23+r1eqf/T9S6AqFqUTsORndRdM9EFpj6c3jlcSpDG48mY223/xRJf3mgNbi5aDeHKgPc4ztVOTPm65Ih2+8uc6ieS7xD89Z+s0kyeEM4zHuHXpOu/ZyAAAAcBiGfuTQ/ThkfP+FWy7+TuxoxqDbyToBoOamA8+8kjTtjT7L90fzWte/ryzNKxzSs5l0GAAAAHnQUJGL7oY/kb7/Wl639UL0U8CoK3PyUnmbyp8u1WqxExoe/cnhekLPgUqZY6hB+l+ETTqa3vs4EspvNOwmu6fcVN6GbZkU7EnX/dDXjvActf/rcwEAAK4TQz8AAAAAAEBt0KMCAAAAAADUBg0VAAAAAACgNmioAAAAAAAAtUFDBYAzoCeAvKvJZLYAAFwyfc091gTlAJCMhgqkWMr73SXPUl80fuHvL+LtCMt3uYu98aF+ea7T2pPZ6FM2b4mkfF6GMJ7He2PPvuoevqIOjV/4u/qf/y43/5bvd+Z8HS5UKA9z6ce3S1b8u/I8molH2QJwQjRUnJi52bh7V5cL4K/qy4e6UXkciozmslqtzPKzaQ2oheX7owxlJJ81CxeqV/fzI+fvbORfdRpPP+E5e9K3n6BsF318Twdyc/Mo0ksvP42nTxl1fPF43zqAE6GhArhqS1kEHend17QRYPkuph3l80loprhEDXn60Q1kH9K1n9RL3cNXFPHDNbvW8jGVgScyWf3I0639KJFKn8+RdPxXhl0COAkaKgowre26pdm0TIddMHe7ak8HUddMtcRa5s1v1WetYSASDKUVfWc9Dj+ha63ez+42Uvcf/V6PM9zd9iGiLoK74cve/lb8t7oQJv3+b1fi7d+71id0UdwZ1pD+dGQ3fnlFvwuXePjy5Y/9U4vlr7t8hNLKVzm247abvnnKvyv9XeFffo8l6PTE3Y6ym39R+l55+dwn/QvHf7/4RWU86beu8h+u391fGNayhssUCV9kK33iaa+PGZWY0frBdJ/8Db+bFE8Trth+UvevZMUvFIVpe9neb/w7m7AflD5q2S1fRdQ3/6L9u8vvdvok5VGaMDxb6Rm7vkSyyodWXf5E4Us7PzvCXzD9tTqUj+rS16UrH3kbZxr30usEMv5OSlibfwllBwDKQENFUb4nN69NmesumPORyPBxfSHSFyFPJhJ1qZ+01QXPntCjbpvzUUekMwp/b5af2Dj8HDL2r/neqzTndv/9QK0+5IKiL7It0/1+vhO+rO3ri/3XQxQvvd4Xb+eC5numWd+s12nhe5sbBv17bxZPm5V8xK6szu3rm4XWUNp2+2b5SXoynx4/F99ryeIl3PZu+A1H/qTJUz6yypeTThtzc+SJLyrfWtHNUhR+mybtzfbnSeNVs+LnSP884V8uAun07hPyLI7ymcix/TLiXyR+WV3XXeW/8fQifVVyv+KFcfolvvpuWUOEioRPc5Zvdey8Nuc2XfV5ZC6j1ApBXENu26r+tEj5XvvWpLFr/1nx06aD+PGvw6ajOt8aGhY//8WPrzzp4zp+iqpv/un9p5Rf9emLDUCe47MIV/yqzh+t0P1JgfTXTl0+jpG+5WjIfa+Tfr4BgArRUFFYXybRzXfjVtqq0heez6fy5Xdk9Ly58nSfR9IJxpLzOppT2v5D/cnmwtp9SL4hzRarsCZUorK2ry/28Qtv0v77qhITfSe8eZvJbzx9MtLLtf3pl6934Lj4Z8fPxRl+R/4crmD56n7Ym6OJCqHajr1ZXHeBXX7LOFBhjyVe4s11Rvyy0z9P+JfyO7P/TUX5TOPaftH4lxO/Q3VF785fF0aVTq9+jkatY8lTvjeVUl0Zin3VqdFUFShLV5hMzybFNOw19TaLXn/071UIH6LfJ1dW4uUjqfw45Q7PsVWbf7r8PusKbOxkGh4vD+un3HmOz8PlLB8V50+x+5Mi6V9USeWjtuU/wexXnWV36Z4Z6r7hgHsnAMiDhoqiYjcW0Unb3Fwsf9UtffxJtVpaQ/VJydL2X5Jg6Inu/bi5Yd3DbrdvT92IOW0quvpGzTykj9Jw92lS5vbDSq4r3IXil2inIaKq/Km6fC0XCdtqSKx+FEqNnyP9Swo/5TNNju0XjH8Z8SvCVAz8L1VlUGzD2rpicGoVH58N3aXCVBxUhWnWl/5Mp0OY5u1blQaF9/+3Ieh7HDWClMN5/JzSEa7fjfvepvwmVHwPOz5zyhG/WufPqZVQPoqn7/awPL0cb+gIABwHDRWVUjce6yfV0bJ5gnAOdFdf3TXS9/KP/Qypi6i6cMffJpHWxXjNXPw7Er8X1hfz8PdzGclQWusrcb7tz7a7N/xxePwSJIS/WscuX3riTfvfnLLTv3j4KZ/Z0rdfNP7lxK8QM3bal1eVMHouE1XLizWa1UGFx2ejKZ1gIUuVJ9J7lod21NMpXj5L2L/v2UpQ2Kun7DcCpR8/dVDx+dWWX5NvZthSfC6eA47PvbnjV+/8ObXi5aNY+treDLGlzIdUf9ghZQBwTDRUVMVOQDR8y77wmCdjGd3/1k+09NOVMp+o7KP7YVv+i1Tm1Y2XI/zTt6EE/ZeUC304Ljvd7vZtV+U8c0KUEj9X+JO58je1fOQsXwfrPoge5hF/Ldl04Jk5APJ1sXWkf67w222Mv7OfNFE+E+yxfaNo/AvEL0P2+bEhTy99tfpN3saqvp4446oKl6lo78ytUpKTHZ9mmJXI7/dCmireutu8//Umi6AtukNF8f3bJ/zxitgBtSDX9W0j7fi50PwzwvKrrwF62Ef/Jav7vPv4TJJ6fdk7fqfJn1Pf/xyvfLiuH6eU1Zuq2vwHABoqKqNfezWX0Sx6ImWX3e59qhJiJpFadyGMKiPRa6Hs71sLeSn9iUp+uuU/Cme+Rv9wDG4wbNl4vUpz9Df8vhfF205MFbsZNmOv7TqzXk88tV7v3r4O81bXSr2kdK/cP36hrPBny5m/WeUjT/k6mH5aM5H++omqTf89xqJmp3++8Jvu0cFQXPeDlM+/srdfNP5F46fn3rCfmQqIL575zk5jTGr5t3SDWuCL305vQAqHK+3OreJSNHxVH586Xr4Mx83wKbxOB1+lQ6dpj0/X/l3x0/m7k3dbv88pI/+yj5/IpeafZfLNE8/vy/YoKdfx5YqfCn/m9cUdv2rzx8UV/qJOXz7ypW9VcsZfM8Pq0l5hXlX+A0Dov9Vq9c/+HzgifaEMZ4w/2rUZZ0nf0O3bSFLctZfPc4m/fqIXvpkkLZx6dv2wF32J3fYvnX6C3RpLbyvNwrSejbbf/FE18q/eyJ9LFl4Hxr2MY16/3cnztybWBYCy0KMCQK11P+aMj0Yi93CksNuybI3/h1PSZLpmjhI7WefRkH/1Rv5csuX7o7ryZr3yeWnetpT6VhMAKIiGCuCPaNxl+lLvOvO5h3+X7marh6G8/u2WepUuLX/3F3Wbzuxpo5/02Ukgz+v1eTXI3z9d3tXSGkr7mE9Nyb96q23+cH4sx1Tehu3N68d3Rfkvx+7tCOCaMPQDAAAAAADUBj0qAAAAAABAbdBQAQAAAAAAaoOGCgAAAAAAUBtn3VChX4sVTo40kMueG2kzOdQdswkCAAAAAC7YRUymqWeA92Qiq5KnIw/fDx69pK0vk9WHnOINTFXFDwAAAACAurmIoR/dh77I7FfK7mvQePqR1Wolq4na/sks5Xcm0n+gkQIAAAAAcPmYowIAAAAAANTG1TdU6GEV4TwXarl737tXxtbv1TLYmSyj6PYBAAAAALgml9FQ0WhKJxjL956tAOu5H/TwDrVM2kNp7dGYoOew8GYjmdvf6yU+jUTR7YeWsgg60mzYPwEAAAAAuGAX0lDxJD+rT5FH3XMh7xtApvLld2T0vGlZ6D6P9m/wSP1+0e1Hb/r4kofVjzzRUAEAAAAAuAKX0VCxfJe7m0eRT91zIeebOZa/MpNAhq3Y0IzWUH2Sn55scz6SzTbivSUKb78rH7onxrwprzd3wltJAQAAAADX4EIaKhYSdHpyv3evg46M5pthG+GyX++F9ZtBVnMZyVBaW5NUFN++NO6l1wlkQUMFAAAAAOAKXO9kmrYBYPiWb6CIW0Nu2/a/WunbBwAAAADg8l1vQ4U05OlnLqOZtxmasTV8Yynvd/Yzz1d/++KZ72yGYey+8cNMrLmeTdO1fQAAAAAAsOu/1Wr1z/7/fE0HcvPalPnPk1zenJO6waQli5ftN4oAAAAAAHCJLqJHxfTLF2nfXmAjhRYOKfG/GEICAAAAALh8Z91QsXy/C4dc+H2ZXHB3g+7HRPp+OITkjtd/AAAAAAAu2GUM/QAAAAAAABfhiifTBAAAAAAAdUNDBQAAAAAAqA0aKgAAAAAAQG3QUIGamMrg5k6YKxQAAAAArhsNFaiBpbzfeTIbfcrTZb5jFgAAAACQEw0VJ2ZesXr3rqrq12v5/ihDGcknrRQAAAAAcPVoqMBpLd/lcSgy+nwSmikAAAAAADRUFGB6QwymItOB3NzcmOVuZ5KF6SD83CyxnhPmt+qz1jAQCYbSir6znqdBD4e4Eb35Nb2f3W2k7j/6vZ77YXfbOehtqm1H4R9Mw+3tbmMrfjcDWQd3+S53+rN4BGw442m0/B5L0OnJPa0UAAAAAACFhoqifE9uXpsyX61kNR+JDB/XFXldifdkIiu9Ti2T9lBatqGh8fRjPpuPOiKdUfh7s/zsN09Dxv4133uV5tzuvx+o1XsMM1Hbfm3OTRh9ryWLl7mMOoGMv8Mt6IaSr4co3Hr7vnhRQ0rjSX5UeDpqG2FbxVQGnq+iOpefWASXi0A6vXt6UwAAAAAADBoqCuvL5McOW2jcSlsCWZia+lS+/I6Mnrv6D6P7rCruwVhsPb8kafsP9Sebho/uQz/8T259eYl+3BlJLCqGbmz5iH32Z/uNJ/nUjRyv7/I+8MTvT7YaKXSvj9+Z/S8AAAAAAAoNFUX1HyTWFCEfq1VYeV/+ykwCGbZiQyNaQ/VJydL2fwzR8I5o8Xy7YqPx9CkjGcrQ78vkaAEDAAAAAJwrGioq1ZGRHXaxWfYc2lFbUxm09CyY803cJn97bJg3erQn28NCAAAAAABIQUNFVRr30usEMnyLz4b5V+O2LZIxHMT/sr/XvRcSeizURzgHxZbpQFrDtulJ0f2YSD8YyuPWbJ4Nue91VPS/acAAAAAAABg0VFSmIU8/cxnNvM3QCL3s9irofoSTXK6HiERv1VC//wwnozSftxbyktBj4XS68jzqSDBs2XC/SnMUC59+w4eZPPPZDk3ZfD/+IpDGfU86wVAc7TkAAAAAgCvx32q1+mf/D5yEeTvKbCTzaFJQAAAAAMDVokcFTq77MTcTbrbiXS0AAAAAAFeJHhWoiakM9PCR+aVMNgoAAAAAOAQNFQAAAAAAoDYY+gEAAAAAAGqDhgoAAAAAAFAbNFQAAAAAAIDaoKECyLB8v5Obmxu7DIT3kpwTPUFrlHdq4a0yAAAAwFmgoeLsLeX97jIr0bVpJOhPZLVaqeVDuvaj+rjc/M8nK/5d+TD5tpJJ334EAAAAoPZoqLhwprJ/966qc+en8fQTNhBQyzzYOee/03QgNzePIj3KBwAAAHBJaKg4ew15+qnr035U71rzfyoDT2Sy+pGnW/sRAAAAgItAQ8UZyxoaEa1rDQORYCit9ffu5D32eH06iD5XS/zJu35aPZiu1w+mURf77d+nCfe/2x0/nDPgLraBrf3vNXwhDM/WtAM6zDu9B1LjZ23vf2d7maL9x+dBiKeNI3wF01erQ/4fnn5F6WEdNM4BAAAAl4iGijOWNTQiWjcfdUQ6I5nbsfor/QS6EX5HVzI9ieZfWMmkrSq08cqq78lrc2624XstWbzMZdQJZPztrkk3nl6kL758bVXUv9QnfXmxAdCV6a+HKFx6HgFfvITGhEO54qf3783iabOSjz1rvr73Ks15FP5Aho97hL9A+mqnzv8y0g8AAAAAdtFQcbWm8uV3ZPS8qVl2n0fSCcayqSdvGhV0ZTf21Ry68qwruLGWiumXrzb5sH4KrivT8Ypt96HMuQbyxE/Z/XtP/cmm4r9/+Iukb1El5X/B9AMAAACAXTRUXKvlr8wkkGEr1nW/NVSflKdx35OO/2WHJPytGMvyXe5iwwZuPN+uKEGO+OmGkvlINt8psTdH7ZWQ/8XTb+f1oWo53tARAAAAAHVFQ8VV68jIDlvYLJseAoU17qXXscM/9LCPTk/u19tWlVRVMVYB2Oy79Ld7uOO3Hj6xmstIhtK6qppy8fwvln6b14dGC0NHAAAAANBQceEat+3k7vmmESGQ4VuVFfOGPL30zfAPPeyj//KkPkmj3+Kwf4+K9dAS3Tsj/vu949cQnVRlSw3fkRwv/6tJPwAAAADXh4aKsxW9hUEtpgLsi2e6z++8NaL7EU7yuO7iH63Xr7Wcy2jm2c/tUvbwh+6D9H1PPL8vD1tPy8M5LIJhy+77VZqjeI8KV/xU+D9H0lHbNt9pLeRlq0eGO367b6wwE0OW9kjfFb6iTp//1aafS874AwAAADg7/61Wq3/2/wB26DdbtBYvsmJMwllbv+GEfAQAAABqjx4VAAAAAACgNmiowAH+vq1hd7moOSmj4Rs3AxXzY7iy9K3MJh1PMD0IAAAAgAMx9AMAAAAAANQGPSoAAAAAAEBt0FABAAAAAABqg4YKAAAAAABQGzRUAICZePNO3pf2TwBXT7+eejOJ8bEmU0Y5dialZgZqACiJPr8e55pIQwVOZCnvdzdyd7E1w6LxC39/EfdWy3e5i90w1i/PdVp7Mht9ylPDfkT5vBBhPM+3knnu4Xc5NH7h745yfuxPZLVaqeVDuvaj+rj08uGSFf+ufJh8W8mkbz8qHcdnsiMen4Vcbv7RyFqGSz++XbLi35Xn0Uy8I6QNDRXAFTMXs7t3dTqqijrRPQ5FRnN7s7+Sn01rQC0s3x9lKCP5rFm4UL3qy3+1zj38Vbv29Lno+E8H6gb6UaRXWStEYRyf2eqePuecf42nn/Ceq7pWuqt37efXxtOnjDq+eBW3SNJQAaBCS1kEHend17QRYPkuph3l80loprhEDXn6qevT8DzOPfwulx6/ql1r+k1l4IlMVj/ydGs/OgmOz/PG+QdZOL9mn19V+nyOpOO/VjpsmoYKFGZaFQu3qEVdjKJ5AsK/B9P4ONO/cwhMB9E6vcS7ICX9/m9XxO3fu9YndHHaGdaQ3rq6G7+8ot+FSzx863Q3LZ/h+k1X/ij+9k9Nf8+Gz/xWfb81DESCobTs73fDtxX/0luOt+O2m77Z8bMc6e8K//J7LEGnJ+52lN38i9L3ysvnPulfOP77xS8q40m/dZX/cP3u/sKwHmu4TJHwR7bSL543+phSiR2tH0z3yf/wu0npYMIV20/q/pWs+IWiMG0v2/uNf2cT9oPSRy275S9dUvmNbztab//UYuffYukfqkP5ODz9itLDOk5beahD+icLv3vdx6dbffMv2v9umv+9/mynT1IepQnDs5We8fOTlVU+tOryJwof59f178337IrK7XF+bdxLrxPI+Dtnwh6AhgrUgD5IW6b7/Vy34MUqjb73Ks25btHU40wDGT5uDnZ9svh6CNeF633xdk6mvmeaBc36+aij/t6ccPTvvZne52YbH7Ej07l9fbJpDaVtt2+Wn6Qn8+nxc/G9lixewm3vht/wPbl5bYZxmI9EJVCuE3HULVBvUzrxNNiET58kPYnGZ6v4t9UJOeFilUinjTm5euKLyrdWdLKNwm/TpL3Z/jxpvFtW/Bzpnyf8y0Ugnd59Qp7FUT4TObZfRvyLxC+r66ur/DeeXqSvSu5XvDBOv8RX3z3WEKEi4dec5V8dW6/NuU13fZ6ZyyjXDUdDbtvq/myR8r32rckD1/6z4qdNB/Hzgw6bjup8a+hY/PwYP/7ypI/r+Moj6/h3Ojj9Q6cuH2Wk3zk7dfqn4/jMo775p/efcv1Rn77YAOS5vhbhit8xjn/Or9Wmbzkact/rpJ9vSkBDBU4sVmFNqET1J5sDv/uwfcLQJ4v4gbu7XuurSkz0nfDkP5Pf+PEUjCXtvOXa/vTLNxOtZZ88suPn4gy/+mQSbbdxK20JpJzzxVS+/I6MnjeR6z6PpJORXlu6H/bkOlEhVNuxF5t1F7rlt4wDFfZY4iVenDPil53+ecK/lN+Z/W8qymca1/aLxr+c+B2qK3p3/rowqnR69XM0atVFnvK/uenVN1uxrzo1muoGzdI3ZPrpkGYa/pp6mwXPH+b3KoQP0e+Tb4bi5SepfDnlDk+yrOPf7fD0L66k8lEw/a4Xx2cutS1f1eaf2po86wps7GYovN49rJ9y57m+Hi5n+ag4fzi/1rX8J5j9qrukatBQgYPo1r6oO5Lp/uR767+TuhymCYae6J9vLnh72O327akTudOmoqtP9OYhffS0f7c1OnP7YSXXFe5C8Uu00xARu3Dpi5ue5byUitvyV1UZg1hPCLW0huqTkiwXCdtqSOz+KpQaP0f6lxR+ymeaHNsvGP8y4leEubHwv9Qth2Ib1tY3FrlsD2vRy9G6blZ8/Db0I1tzY6JuyGZ96c90OoV50r5VaVR4/38bir7HUSWrHM7j65KVUD6Kp98Jj49T4/h0qvXxWXH+aY373ub6o/Nxp+J72PU1pxzxu+rzpwvn11LRUIGD6IMo6o5kekb1N12c9nmrg+4qqLtW+V7+sWMhdRCqAz/+Nom0Lopr5uTRkfi1dBOPuYxkKK31kZxv+7Pt7g1/HB6/BAnhr5a6MK57QkTLpoW7fHriTfvfnLLTv3j4KZ/Z0rdfNP7lxK8QM/bSl1eVMHouE3WXGGs0y2PzesRoKaURMbcKj99GUzrBQpYqz6T3LA/tqCdUvPyWsP91A3jY66fsNwalH1/XoHj+FEu/Ux8fp8bx6VLv47PC/NPs9cfkmxl2GJ9L64Dr697c8bvu86fLlZ1f7ZCyKtBQgdPrftiWwyKVeXXidrQoT9+GEvRfUk4U4bjOdLvbt10d88wJUUr8XOFPtn7ioVvfE9LHPHlJ6l5mJ8gZvlV04ek+iB7mEX+t0XTgmTkA8nXRc6R/rvDbbYy/s1uqKZ8J9ti+UTT+BeKXIbX8Gw15eumr1W/yNlb3+zV8c83Jjl8zDEvk93shTZUuuluu//Umi6At+oFt8f3bJ4jxG70D7rKy8zfOdXwdxnX+rdrxykc16Vc9dV4xFe2duZFKwvGZrfjxeaH5Z4TXH30O0cM++i9ZQzPd19ckqeenveN3mvzh/FoHWb2pysl/GipQC7rl0EyW08rbPSkcwxcMW+og0AfCqzRHf1uUfU+vCxczsU3sYmrGbtp1Zr2euGa93r19Heatrll6SemetX/8Qlnhzxa9Nsg+8Wgt5CWpxV1VUqNwhfuJKqv6tUxzGc02Q3rMUlr3Pt3aO5H++omMTf895knITv984TfdK4OhuK4nlM+/srdfNP5F46fn3rCfmRsYXzzznZ3GmNTyb+kGtcAXv71fA2FxRcNf9fGrh2n5Mhw3w6d8Op18lU6dpj1+Xft3xU/n/07ebv0+p4z8zT6+isp5/j3Y6ctHtennkjP+TtFww925kVw4PutxfF5q/lkm3zzx/L5sj3J0XR9d8XOdn9zxqzZ/XFzhL+r05eNszq9mWGwn5UFOOfn/32q1+mf/D1wQfaCFM04f7djGWdIXBHMR2HMyyWKuvXyeS/z1E4HwzSScR45IPyFrjaU3j3eVDfNiNtp+s0CV9FxMrcXLQU+LUR/mHJ/S0G/y2PSiL7Hb/qWryfGpkX/1Rv5csvA+btxLP+bLyH96VAC4at2POeMrkWi/4UgoTdJku2YOEzsZIFCKsNuybI3/h1Ntjk/yr97In0u2fH9Ud85Zr2wvJ/9pqACOLhq3lb7Uu8587uHfpbvp6WEor3+7tV2lS8vf/UXdLo/f06YOapD/f7rUqqU1lPYperash6dVM876L46/cmzS0fRe3jUdqHWHvzr8dDg+DfKv3mqbP5xfyzGVt2FbJml5W2L+M/QDAAAAAADUBj0qAAAAAABAbdBQAQAAAAAAaoOGCgAAAAAAUBs0VAAogZ6gKOEdywAAoGT6mps1watrPQDUHw0VZ0u/v/ZG7i62Zlg0fuHvL2L2Xv3O8tiMxPXLc53W+v3pn7H3JFM+L0MYz+O98WBfdQ9fUYfGL/xd/c9/l5t/+v3xm5nkqTAe5tKPb5es+HfleTQTLzVtXOsBoP5oqAAKMDejd+/qdqIq6kblcSgymstqtTLLT+o7i0/D/S5lXKrqy38xdQ/fqZF/1Wk8/YTn7EnffoKyXfTxbV7v9yjSSy8/jadPGXV88VJaJF3rAaDuaKgAam0pi6AjvfuaNgIs38W0o3ye03vMkV9Dnn50A9mHHOv1+Pupe/iKIn64ZtdaPqYy8EQmqx95urUfJVLp8zmSjv+aMuzStR4A6o2GiosRdRGM5gkI/x5M9TjFqPvp3zkEpoNonV7iXQSTfv+3K/H2713rE7og7gxrSH86shu/vKLfhUs8fOZpjP7APLkI12+68kfxt39q+ns2fOa36vutYSASDKVlf78bvq34l/7kZztuu+mbHT/Lkf6u8C+/xxJ0euJuR9nNvyh9r7x87pP+heO/X/yiMp70W1f5D9fv7i8Ma1nDZYqEL7KVPvG018eMSsxo/WC6T/6G302KpwlXbD+p+1ey4heKwrS9bO83/p1N2A9KH7Xslq8i6pt/0f7d5Xc7fZLyKE0Ynq30jF1fIlnlQ6suf6LwpZ2fHeEvmP5aHcpHdenr0pWPvI0zjXvpdQIZf6ckbOZ6m78JZQsA6oCGiougL7It0/1+rlvgY5VG33uV5lw/kVjJpB/I8HFzQdIX+6+HcF243hdv54Lle6ZZ36yfjzrq780Ng/69N9P73GzjI3ZldW5f3yy0htK22zfLT9KT+fT4ufheSxYv4bZ3w2/4nty8NsM4zEeiEijXjVTUrVdvUzrxNNiET9/keDKxn6v4t9UNVd4bAp025ubIE19UvrWim6Uo/DZN2pvtz5PGo2bFz5H+ecK/XATS6d0n5Fkc5TORY/tlxL9I/LK6rrvKf+PpRfqq5H7FC+P0S3z13bKGCBUJn+Ys3+rYeW3Obbrq88hcRlkVgrWG3LZV/WmR8r32rUlj1/6z4qdNB/HjX4dNR3W+NTQsfv6LH1950sd1/BRV3/zT+08pv+rTFxuAPMdnEa74VZ0/Wtb52alA+munLh/HSN9yNOS+10k/3zjXA0B90VBx9mIV1oRKVH+yuXB3H7Yv+PpiH7/w7q7X+qoSE30nvHmbyW/8eheMJe2+w7X96Zevd+C4+GfHz8UZfvXJJNpu41baEkg51/OpfPkdGT1vItd9HkknI722dD/szdFEhVBtx94srrvALr9lHKiwxxIv8eY6I37Z6Z8n/Ev5ndn/pqJ8pnFtv2j8y4nfobqid+evC6NKp1c/R6PWseQp35tKqa4Mxb7q1GiqCpSlK0ymZ5NiGvaaepsFzw/m9yqED9Hvkysj8fKRVH6ccofn2KrNP11+n3UFNnYyDY+Xh/VT7jzH5+Fylo+K8yfr/OxWJP2LKql81Lb8J5j9qrNshsT1uueGuq844N4KAI6BhoozFww90b0fNzese9jt9u2pGzGnTUVX36iZh/TR0/7dp0mZ2w8rua5wF4pfop2GiNiNZ3TRLqXitvxVVcZ4Twi1tIbqk5IsFwnbakisfhRKjZ8j/UsKP+UzTY7tF4x/GfErwlQM/C9VZVBsw9q6YnBqFR+fDd2lwlQMVIVp1pf+TKdDmObtW5UGhff/tyHoexw1gpTDefycUtXnV6Vx39uU34SK72HHZ0454lfr/Dm1EspH8fTdHpanl+MNHQGAy0BDxZnTXX1110jfyz/2M6QuourCHX+bRFoX4zVz8e9I/F5YX8zD389lJENpra/E+bY/2+7e8Mfh8UuQEP5qqRvbdU+IaNk8oSqfnnjT/jen7PQvHn7KZ7b07ReNfznxK8SMjfblVSWMnstE1fJijWZ1UOHx2WhKJ1jIUuWJ9J7loR31dIqXzxL273u2EhT26in7jUDpx08dVHx+teXX5JsZthSfi+eA43Nv7vjVO39OrXj5KJa+trdCbKmm95plh5Slcq0HgBqioeISdD9sy3+Ryry68XI8EZq+DSXov6Rc6MNx2el2t2+7KueZE6KU+LnCn2z9xFI/PUtIH/PkNKl7qJ3AavhW0Y1j90H0MI/4a8emA8/MAZCvi60j/XOF325j/J39pInymWCP7RtF418gfhlSy7/RkKeXvlr9Jm9jVV9PnHFVhctUtHfmVinJyY5PM8xK5Pd7IU0Vb91t3v96k0XQFt2hovj+7RP+eEXsgFpQdv7FpR0/F5p/Rlh+9TVAD/vov2R1j3cfn0lSry97x+80+eO6PlbteOXDdf04JVdvqqz11ZYPACiKhooLoVv+zWRXrbzdC8MxuMGwpS5S+kL1Ks3R3ydCvqfXhYuZmCp2M2zGXtt1Zr2eeGq93r19HeatrpV6SeleuX/8Qlnhzxa91ss+sWwt5CXpiZmqpEbhCvcTVVbV73/mMppFTzztUlr3XP20ZiL99RNVm/57jDXNTv984Tfdo4OhuO4HKZ9/ZW+/aPyLxk/PvWE/MxUQXzzznZ3GmNTyb+kGtcAXv53egBQOV9qdW8WlaPiqPj51vHwZjpvhU3idDr5Kh07THp+u/bvip/N3J++2fp9TRv5lHz+RS80/y+SbJ57fl+1RUq7jyxU/Ff7M64s7ftXmj4sr/EWdvnzkS9+q5Iy/ZobVZbzCPHN9VeUDAMrx32q1+mf/D8ToC2U4Y/zRrs04S/qGbt9GkuKuvXyeS/z1E7vwzSRp4dSz64e96Evstn/p9BPs1lh6W2kWpvVstP3mj6qRf/VG/lyy8Dow7qUd8671in77k+dvTbwLAHVBjwoAhXQ/5oyPRiL3cKSwW7Jsjf+HU9JkumaOEjtZ59GQf/VG/lyy5fujuvKmv/LZtV6XD/02ptS3ngDAidFQgTMUjatMX+pdZz738O/S3Wz1MJTXv91Sr9Kl5e/+om7TmT1t9JM8Ownkeb0erwb5+6fLu1paQ2kf86ko+Vdvtc0fzo/lmMrbsL15/fgfjvVR+ZBj94YEgPwY+gEAAAAAAGqDHhUAAAAAAKA2aKgAAAAAAAC1QUMFAAAAAACojbNuqNCv3QonXxoIcy8BAAAAAHD+LmIyTT3DvCcTWfESaAAAAAAAztpFDP3oPvRFZr/CmxEBAAAAADhvzFEBAAAAAABqg4YKAAAAAABQG5fRUNFoSicYyzdjPwAAAAAAOGsX0lDxJD+rT5FH3gACAAAAAMA5u4yGiuW73N08inyuZLX6EN79AQAAAADAebqQhoqFBJ2e3Dfs3wAAAAAA4CwxmSYAAAAAAKgNGioAAAAAAEBt0FABAAAAAABq4yIaKqZfvkj7VpiiAgAAAACA83bWDRXL9zu5ubkRz+/L5IN3fQAAAAAAcO7+W61W/+z/AQAAAAAAToo5KgAAAAAAQG3QUAEAAAAAAGqDhgoAAAAAAFAbhRoqosksb24GMrWfAQAAAAAAHKqUyTSngxvxZCIr3rwBAAAAAAAKKGXoR/ehLzL7laX9GwAAAAAA4BDMUQEAAAAAAGqDhgoAAAAAAFAb5TRUNJrSCcbyzdgPAAAAAABQQEkNFU/ys/oUeeQNIAAAAAAA4HDlNFQs3+Xu5lHkcyWr1Yfw7g8AAAAAAHCIkhoqFhJ0enLfsH8DAAAAAAAcgMk0AQAAAABAbdBQAQAAAAAAaoOGCgAAAAAAUBulNFRMv3yR9q0wRQUAAAAAACiiUEPF8v1Obm5uxPP7MvngXR8AAAAAAKCY/1ar1T/7fwAAAAAAgJNijgoAAAAAAFAbNFQAAAAAAIDaoKECAAAAAADUBg0VAAAAAACgNmioAAAAAAAAtUFDBQAAAAAAqA0aKgAAAAAAQG3QUAEAAAAAAGqDhgoAAAAAAFAbNFQAAAAAAIDaoKECAAAAAADUBg0VAAAAAACgNmioAAAAAAAANSHyf81eQosMOuncAAAAAElFTkSuQmCC;" vertex="1" parent="1">
          <mxGeometry x="160" y="20" width="1066" height="274" as="geometry" />
        </mxCell>
        <mxCell id="dh77e4ApneEu6l16O4cU-2" value="" style="endArrow=classic;startArrow=classic;html=1;rounded=0;strokeColor=#a11b1b;exitX=0;exitY=0.949;exitDx=0;exitDy=0;exitPerimeter=0;entryX=0;entryY=0.074;entryDx=0;entryDy=0;entryPerimeter=0;" edge="1" parent="1" target="dh77e4ApneEu6l16O4cU-1">
          <mxGeometry width="50" height="50" relative="1" as="geometry">
            <mxPoint x="159.9999999999999" y="273.02599999999995" as="sourcePoint" />
            <mxPoint x="160" y="32.999999999999986" as="targetPoint" />
            <Array as="points">
              <mxPoint x="130" y="273" />
              <mxPoint x="130" y="72.99999999999999" />
              <mxPoint x="130" y="40" />
            </Array>
          </mxGeometry>
        </mxCell>
        <mxCell id="dh77e4ApneEu6l16O4cU-3" value="&lt;font color=&quot;#a11b1b&quot;&gt;&lt;b&gt;T(n)&lt;/b&gt;&lt;/font&gt;" style="text;html=1;align=center;verticalAlign=middle;resizable=0;points=[];autosize=1;strokeColor=none;fillColor=none;" vertex="1" parent="1">
          <mxGeometry x="80" y="142" width="50" height="30" as="geometry" />
        </mxCell>
        <mxCell id="dh77e4ApneEu6l16O4cU-4" value="" style="endArrow=classic;html=1;rounded=0;strokeColor=#1d722e;" edge="1" parent="1">
          <mxGeometry width="50" height="50" relative="1" as="geometry">
            <mxPoint x="590" y="57" as="sourcePoint" />
            <mxPoint x="1320" y="57" as="targetPoint" />
          </mxGeometry>
        </mxCell>
        <mxCell id="dh77e4ApneEu6l16O4cU-5" value="" style="endArrow=classic;html=1;rounded=0;strokeColor=#1d722e;" edge="1" parent="1">
          <mxGeometry width="50" height="50" relative="1" as="geometry">
            <mxPoint x="320" y="74" as="sourcePoint" />
            <mxPoint x="1320" y="74" as="targetPoint" />
          </mxGeometry>
        </mxCell>
        <mxCell id="dh77e4ApneEu6l16O4cU-7" value="" style="endArrow=classic;html=1;rounded=0;strokeColor=#1d722e;" edge="1" parent="1">
          <mxGeometry width="50" height="50" relative="1" as="geometry">
            <mxPoint x="644" y="129" as="sourcePoint" />
            <mxPoint x="1320" y="129" as="targetPoint" />
          </mxGeometry>
        </mxCell>
        <mxCell id="dh77e4ApneEu6l16O4cU-8" value="" style="endArrow=classic;html=1;rounded=0;strokeColor=#1d722e;" edge="1" parent="1">
          <mxGeometry width="50" height="50" relative="1" as="geometry">
            <mxPoint x="958" y="146" as="sourcePoint" />
            <mxPoint x="1320" y="146" as="targetPoint" />
          </mxGeometry>
        </mxCell>
        <mxCell id="dh77e4ApneEu6l16O4cU-9" value="" style="endArrow=classic;html=1;rounded=0;strokeColor=#1d722e;" edge="1" parent="1">
          <mxGeometry width="50" height="50" relative="1" as="geometry">
            <mxPoint x="277" y="164" as="sourcePoint" />
            <mxPoint x="1320" y="164" as="targetPoint" />
          </mxGeometry>
        </mxCell>
        <mxCell id="dh77e4ApneEu6l16O4cU-11" value="" style="endArrow=none;html=1;rounded=0;strokeColor=#1d722e;" edge="1" parent="1">
          <mxGeometry width="50" height="50" relative="1" as="geometry">
            <mxPoint x="332" y="183" as="sourcePoint" />
            <mxPoint x="1280" y="183" as="targetPoint" />
          </mxGeometry>
        </mxCell>
        <mxCell id="dh77e4ApneEu6l16O4cU-12" value="" style="endArrow=none;html=1;rounded=0;strokeColor=#1d722e;" edge="1" parent="1">
          <mxGeometry width="50" height="50" relative="1" as="geometry">
            <mxPoint x="490" y="200" as="sourcePoint" />
            <mxPoint x="1280" y="200" as="targetPoint" />
          </mxGeometry>
        </mxCell>
        <mxCell id="dh77e4ApneEu6l16O4cU-13" value="" style="endArrow=none;html=1;rounded=0;strokeColor=#1d722e;" edge="1" parent="1">
          <mxGeometry width="50" height="50" relative="1" as="geometry">
            <mxPoint x="1226" y="220" as="sourcePoint" />
            <mxPoint x="1280" y="220" as="targetPoint" />
          </mxGeometry>
        </mxCell>
        <mxCell id="dh77e4ApneEu6l16O4cU-14" value="" style="endArrow=none;html=1;rounded=0;strokeColor=#1d722e;" edge="1" parent="1">
          <mxGeometry width="50" height="50" relative="1" as="geometry">
            <mxPoint x="940" y="238" as="sourcePoint" />
            <mxPoint x="1280" y="238" as="targetPoint" />
          </mxGeometry>
        </mxCell>
        <mxCell id="dh77e4ApneEu6l16O4cU-15" value="" style="endArrow=none;html=1;rounded=0;strokeColor=#1d722e;" edge="1" parent="1">
          <mxGeometry width="50" height="50" relative="1" as="geometry">
            <mxPoint x="1280" y="183" as="sourcePoint" />
            <mxPoint x="1280" y="233" as="targetPoint" />
          </mxGeometry>
        </mxCell>
        <mxCell id="dh77e4ApneEu6l16O4cU-16" value="" style="endArrow=none;html=1;rounded=0;strokeColor=#1d722e;" edge="1" parent="1">
          <mxGeometry width="50" height="50" relative="1" as="geometry">
            <mxPoint x="1280" y="188" as="sourcePoint" />
            <mxPoint x="1280" y="238" as="targetPoint" />
          </mxGeometry>
        </mxCell>
        <mxCell id="dh77e4ApneEu6l16O4cU-17" value="" style="endArrow=classic;html=1;rounded=0;strokeColor=#1d722e;" edge="1" parent="1">
          <mxGeometry width="50" height="50" relative="1" as="geometry">
            <mxPoint x="1280" y="210" as="sourcePoint" />
            <mxPoint x="1320" y="210" as="targetPoint" />
          </mxGeometry>
        </mxCell>
        <mxCell id="dh77e4ApneEu6l16O4cU-18" value="&lt;font color=&quot;#1d722e&quot;&gt;&lt;b&gt;1&lt;/b&gt;&lt;/font&gt;" style="text;html=1;align=center;verticalAlign=middle;resizable=0;points=[];autosize=1;strokeColor=none;fillColor=none;" vertex="1" parent="1">
          <mxGeometry x="1316" y="41" width="30" height="30" as="geometry" />
        </mxCell>
        <mxCell id="dh77e4ApneEu6l16O4cU-19" value="&lt;font color=&quot;#1d722e&quot;&gt;&lt;b&gt;1&lt;/b&gt;&lt;/font&gt;" style="text;html=1;align=center;verticalAlign=middle;resizable=0;points=[];autosize=1;strokeColor=none;fillColor=none;" vertex="1" parent="1">
          <mxGeometry x="1316" y="60" width="30" height="30" as="geometry" />
        </mxCell>
        <mxCell id="dh77e4ApneEu6l16O4cU-20" value="&lt;font color=&quot;#1d722e&quot;&gt;&lt;b&gt;T(2^n)&lt;/b&gt;&lt;/font&gt;" style="text;html=1;align=center;verticalAlign=middle;resizable=0;points=[];autosize=1;strokeColor=none;fillColor=none;" vertex="1" parent="1">
          <mxGeometry x="1316" y="130" width="60" height="30" as="geometry" />
        </mxCell>
        <mxCell id="dh77e4ApneEu6l16O4cU-21" value="&lt;font color=&quot;#1d722e&quot;&gt;&lt;b&gt;1&lt;/b&gt;&lt;/font&gt;" style="text;html=1;align=center;verticalAlign=middle;resizable=0;points=[];autosize=1;strokeColor=none;fillColor=none;" vertex="1" parent="1">
          <mxGeometry x="1316" y="112" width="30" height="30" as="geometry" />
        </mxCell>
        <mxCell id="dh77e4ApneEu6l16O4cU-22" value="&lt;font color=&quot;#1d722e&quot;&gt;&lt;b&gt;1&lt;/b&gt;&lt;/font&gt;" style="text;html=1;align=center;verticalAlign=middle;resizable=0;points=[];autosize=1;strokeColor=none;fillColor=none;" vertex="1" parent="1">
          <mxGeometry x="1316" y="150" width="30" height="30" as="geometry" />
        </mxCell>
        <mxCell id="dh77e4ApneEu6l16O4cU-23" value="&lt;font color=&quot;#1d722e&quot;&gt;&lt;b&gt;1&lt;/b&gt;&lt;/font&gt;" style="text;html=1;align=center;verticalAlign=middle;resizable=0;points=[];autosize=1;strokeColor=none;fillColor=none;" vertex="1" parent="1">
          <mxGeometry x="1316" y="194" width="30" height="30" as="geometry" />
        </mxCell>
        <mxCell id="dh77e4ApneEu6l16O4cU-24" value="" style="endArrow=classic;html=1;rounded=0;strokeColor=#a11b1b;" edge="1" parent="1">
          <mxGeometry width="50" height="50" relative="1" as="geometry">
            <mxPoint x="1410" y="145" as="sourcePoint" />
            <mxPoint x="1376" y="144.79999999999995" as="targetPoint" />
          </mxGeometry>
        </mxCell>
        <mxCell id="dh77e4ApneEu6l16O4cU-25" value="&lt;font color=&quot;#a11b1b&quot;&gt;&lt;b&gt;Recursion happens&lt;/b&gt;&lt;/font&gt;" style="text;html=1;align=left;verticalAlign=middle;resizable=0;points=[];autosize=1;strokeColor=none;fillColor=none;" vertex="1" parent="1">
          <mxGeometry x="1410" y="130" width="130" height="30" as="geometry" />
        </mxCell>
        <mxCell id="dh77e4ApneEu6l16O4cU-26" value="" style="endArrow=none;html=1;rounded=0;strokeColor=#26599c;" edge="1" parent="1">
          <mxGeometry width="50" height="50" relative="1" as="geometry">
            <mxPoint x="1316" y="224" as="sourcePoint" />
            <mxPoint x="1476" y="224" as="targetPoint" />
          </mxGeometry>
        </mxCell>
        <mxCell id="dh77e4ApneEu6l16O4cU-27" value="&lt;font color=&quot;#26599c&quot;&gt;&lt;b&gt;T(n) = T(2^n) + 5&lt;/b&gt;&lt;/font&gt;" style="text;html=1;align=center;verticalAlign=middle;resizable=0;points=[];autosize=1;strokeColor=none;fillColor=none;" vertex="1" parent="1">
          <mxGeometry x="1335" y="224" width="120" height="30" as="geometry" />
        </mxCell>
        <mxCell id="dh77e4ApneEu6l16O4cU-28" value="" style="endArrow=classic;html=1;rounded=0;strokeColor=#a11b1b;" edge="1" parent="1">
          <mxGeometry width="50" height="50" relative="1" as="geometry">
            <mxPoint x="1396" y="294" as="sourcePoint" />
            <mxPoint x="1396" y="254" as="targetPoint" />
          </mxGeometry>
        </mxCell>
        <mxCell id="dh77e4ApneEu6l16O4cU-29" value="&lt;font color=&quot;#a11b1b&quot;&gt;&lt;b&gt;=&amp;nbsp;&lt;/b&gt;&lt;span style=&quot;font-size: 12px;&quot;&gt;&lt;b&gt;T(2^n) + 5&lt;/b&gt;&lt;/span&gt;&lt;/font&gt;&lt;div&gt;&lt;b style=&quot;color: rgb(161, 27, 27); background-color: initial;&quot;&gt;Eliminating the constants:&lt;/b&gt;&lt;div&gt;&lt;font color=&quot;#a11b1b&quot;&gt;&lt;b&gt;= T(2^n)&lt;/b&gt;&lt;/font&gt;&lt;/div&gt;&lt;div&gt;&lt;font color=&quot;#a11b1b&quot;&gt;&lt;b&gt;Getting the highest degree:&lt;/b&gt;&lt;/font&gt;&lt;/div&gt;&lt;div&gt;&lt;font color=&quot;#a11b1b&quot;&gt;&lt;b&gt;= 2^n&lt;/b&gt;&lt;/font&gt;&lt;/div&gt;&lt;div&gt;&lt;font color=&quot;#a11b1b&quot;&gt;&lt;b&gt;Time Complexity:&lt;/b&gt;&lt;/font&gt;&lt;/div&gt;&lt;div&gt;&lt;font color=&quot;#a11b1b&quot;&gt;&lt;b&gt;= O(2^n)&lt;/b&gt;&lt;/font&gt;&lt;/div&gt;&lt;/div&gt;" style="text;html=1;align=center;verticalAlign=middle;resizable=0;points=[];autosize=1;strokeColor=none;fillColor=none;" vertex="1" parent="1">
          <mxGeometry x="1305" y="304" width="180" height="110" as="geometry" />
        </mxCell>
      </root>
    </mxGraphModel>
  </diagram>
</mxfile>
